<svg 
 xmlns="http://www.w3.org/2000/svg"
 xmlns:xlink="http://www.w3.org/1999/xlink"
 width="21px" height="21px">

 <path fill-rule="evenodd"  opacity="0.4" fill="rgb(248, 247, 244)"
 d="M9.375,0.250 C14.484,0.250 18.625,4.391 18.625,9.500 C18.625,14.608 14.484,18.750 
 9.375,18.750 C4.266,18.750 0.125,14.608 0.125,9.500 C0.125,4.391 4.266,0.250 9.375,0.250 Z"/>
<path fill-rule="evenodd"  fill="rgb(255, 255, 255)"
 d="M10.500,0.227 C16.173,0.227 20.772,4.826 20.772,10.499 C20.772,16.172 16.173,20.771 10.500,20.771 C4.827,20.771 0.228,16.172 0.228,10.499 C0.228,4.826 4.827,0.227 10.500,0.227 ZM10.500,2.132 C15.121,2.132 18.867,5.878 18.867,10.499 C18.867,15.120 15.121,18.867 10.500,18.867 C5.879,18.867 2.132,15.120 2.132,10.499 C2.132,5.878 5.879,2.132 10.500,2.132 Z"/>
</svg>
